<svg width="783" height="784" viewBox="0 0 783 784" fill="none" xmlns="http://www.w3.org/2000/svg">
<path d="M39.9999 783.5C21.1665 769.5 -11.8001 732.8 6.99988 698C30.4999 654.5 90.4998 634.5 39.9999 568C-10.5 501.5 -16 417.5 98 360.5C212 303.5 131 285.5 143 283C155 280.5 23.0001 237.5 31.5 192.5C38.2999 156.5 58 157.5 67 162.5C84 162.167 119.4 144.1 125 74.4999C130.6 4.8999 217 18.1666 259.5 33.4999C273.167 31.8332 304.2 24.0999 319 6.49989C333.8 -11.1001 370.833 19.1666 387.5 36.4999C385.333 61.3333 371.2 122.1 332 166.5C292.8 210.9 293 224.333 298 225.5C298.667 230.167 308.5 240.1 342.5 242.5C376.5 244.9 401.333 267.5 409.5 278.5C411.833 281.833 411 294 389 316C367 338 343.5 348.833 334.5 351.5C326.5 357.833 313.2 373.5 324 385.5C334.8 397.5 354.5 404.167 363 406C372.333 406.5 389.6 415.3 384 446.5C377 485.5 408 583.5 441 594C474 604.5 536.5 608.5 541.5 616.5C546.5 624.5 547 678 554.5 686.5C562 695 620.5 764 655.5 768C683.5 771.2 751.5 777 782 779.5" stroke="black"/>
</svg>
