# File generated by ImageToStl.com - Free Image and 3D model conversion tools

mtllib grass.mtl

o obj1
v 1.64784718 1.86151385 0.00264998
v -1.68597364 -0.08450016 0.47004968
v -1.68597364 -0.08450016 0.00264998
v 0.06003888 1.9753139 0.00811452
v -0.09931771 -1.88491046 0.44750947
v 0.06003888 -1.88491046 0.00811458
v 1.46641803 1.79702091 0.0029861
v 1.56668758 -2.06320357 0.45950392
v 1.46641815 -2.06320357 0.00298612
v -1.71536267 -1.65378714 0.42245597
v -1.50940096 2.20643711 0.00288235
v -1.50940049 -1.65378726 0.0028823
v 1.64784729 0.25889346 0.00264995
v -1.68597364 -1.68712068 0.47004968
v -1.68597364 -1.68712068 0.00264995
v -1.94917536 -0.02869775 0.44747299
v 1.91104925 0.12152079 0.00487044
v -1.94917536 0.1215205 0.00487049
v 1.64784718 1.86151385 0.47004968
v -0.09931777 1.9753139 0.44750941
v 1.56668723 1.79702091 0.45950389
v -1.71536314 2.20643711 0.42245603
v 1.64784729 0.25889346 0.47004968
v 1.91104925 -0.02869739 0.44747293
vn 0.50412 -0.86363 0
vn 0.50412 -0.86363 0
vn 0.50412 -0.86363 0
vn 0.94008 0 0.34094
vn 0.94008 0 0.34094
vn 0.94008 0 0.34094
vn 0.97672 0 -0.21453
vn 0.97672 0 -0.21453
vn 0.97672 0 -0.21453
vn -0.89768 -0 -0.44066
vn -0.89768 -0 -0.44066
vn -0.89768 -0 -0.44066
vn 0.50412 -0.86363 0
vn 0.50412 -0.86363 0
vn 0.50412 -0.86363 0
vn -0 0.94695 0.32139
vn -0 0.94695 0.32139
vn -0 0.94695 0.32139
vn 0.50412 -0.86363 0
vn 0.94008 0 0.34094
vn 0.97672 0 -0.21453
vn -0.89768 -0 -0.44066
vn 0.50412 -0.86363 0
vn -0 0.94695 0.32139
vt 0.9999 0.0001
vt 0.0001 0.96856
vt 0.0001 0.0001
vt 0.9999 0.96856
usemtl mat0
f 1/1/1 2/2/2 3/3/3
f 4/1/4 5/2/5 6/3/6
f 7/1/7 8/2/8 9/3/9
f 10/2/10 11/1/11 12/3/12
f 13/1/13 14/2/14 15/3/15
f 16/2/16 17/1/17 18/3/18
f 1/1/1 19/4/19 2/2/2
f 4/1/4 20/4/20 5/2/5
f 7/1/7 21/4/21 8/2/8
f 10/2/10 22/4/22 11/1/11
f 13/1/13 23/4/23 14/2/14
f 16/2/16 24/4/24 17/1/17
# Vertices: 24, normals: 24, texture coordinates: 4, faces: 12

